<?xml version="1.0" encoding="utf-8"?>
<!-- Svg Vector Icons : http://www.onlinewebfonts.com/icon -->
<!DOCTYPE svg PUBLIC "-//W3C//DTD SVG 1.1//EN" "http://www.w3.org/Graphics/SVG/1.1/DTD/svg11.dtd">
<svg version="1.1" xmlns="http://www.w3.org/2000/svg" xmlns:xlink="http://www.w3.org/1999/xlink" x="0px" y="0px" viewBox="0 0 256 256" enable-background="new 0 0 256 256" xml:space="preserve">
<metadata> Svg Vector Icons : http://www.onlinewebfonts.com/icon </metadata>
<g><g><path fill="#000000" d="M238.7,95.1c0-17,0-34,0-51c0-5.7-1.2-6.9-6.8-6.9c-26,0-52.1,0-78.1,0c-5.8,0-6.4,0.6-6.4,6.5c0,33.9,0,67.7-0.1,101.6c0,4.2,1.2,5.9,5.7,5.9c26.8-0.2,53.6-0.2,80.4,0c4.2,0,5.4-1.3,5.4-5.4C238.6,128.8,238.7,112,238.7,95.1L238.7,95.1z M162.8,89.4c0.1-2-1-4.5,3-4.4c16.9,0.2,33.7,0.2,50.6,0c3.6,0,3.4,1.7,3.3,4.1c-0.1,2.2,0.6,4.4-3.3,4.2c-8.4-0.3-16.9-0.1-25.3-0.1c-8.4,0-16.9-0.2-25.3,0.1C162.5,93.4,162.6,91.7,162.8,89.4L162.8,89.4z M162.8,60.9c0-2.1-0.4-4,3-3.9c17,0.2,34,0.2,51.1,0c3.6,0,2.9,2.1,2.8,4.1c0,1.9,0.9,4.3-2.8,4.2c-8.6-0.2-17.2-0.1-25.7-0.1c-8.4,0-16.9-0.2-25.3,0.1C162,65.4,162.8,63,162.8,60.9L162.8,60.9z M216.9,118.6c-8.6-0.2-17.2-0.1-25.7-0.1c-8.4,0-16.9-0.2-25.3,0.1c-3.9,0.1-3-2.2-3.1-4.4c0-2.1-0.4-4,3-3.9c17,0.2,34,0.2,51.1,0c3.6,0,2.9,2.1,2.8,4.1C219.7,116.3,220.5,118.7,216.9,118.6L216.9,118.6z M28.2,129.4c0.2-12,9.8-21.6,21.5-21.7c11.9-0.1,21.6,9.5,21.8,21.8c0.1,5.1,0,10.2,0,15.3c0,5.1,0.1,10.2,0,15.3c-0.4,12-10,21.6-21.7,21.5c-11.6,0-21.4-9.6-21.6-21.6C28,149.8,28,139.6,28.2,129.4L28.2,129.4z M89.5,161.7c-0.3,11.3-4.6,20.7-12.8,28.4c-5.4,5-11.7,8.5-18.9,9.9c-2.7,0.5-3.8,1.6-3.5,4.4c0.3,3.7-1.1,8.6,0.7,10.9c2,2.5,7,0.6,10.7,0.8c2.3,0.1,4.5,0,6.8,0c3.5,0,5.4,1.7,5.3,5.2c-0.1,3.4-2,4.8-5.3,4.7c-7.7,0-15.3,0-23,0c-7.4,0-14.7,0-22.1,0c-3.3,0-5.6-1.1-5.7-4.8c-0.1-3.9,2.2-5.3,5.8-5.2c5,0,9.9,0,14.9,0.1c2.1,0,3-0.5,2.9-2.7c-0.2-3.8,0.9-7.9-0.3-11.2c-1.3-3.6-6.1-2.6-9.3-4c-15.2-6.8-24-18.1-25.6-34.8c-0.3-3.5-0.1-7,4.5-7.3c4.5-0.3,5.2,2.8,5.5,6.5c1,16.9,15.4,30.6,31.3,29.9c14.2-0.6,27.1-14.3,28.2-29.9c0.1-2,0-4,1.6-5.4c1.6-1.4,3.6-1.5,5.5-0.8C88.9,157.4,89.6,159.4,89.5,161.7L89.5,161.7z M114,50.3c-7.9,5.9-15.7,11.9-24.4,18.5c0-4.6-0.1-8.1,0-11.6c0.1-2.1-0.5-2.9-2.7-2.9c-4.7,0.1-9.3,0.1-13.9,1.1c-6.9,1.4-11.6,5.3-14.1,11.9c-2.7,7.3-3.4,14.9-3.4,22.6c0,3.2-0.6,4.8-4.2,4.2c-1.5-0.2-3-0.1-4.5,0c-1.8,0.1-2.4-0.6-2.3-2.4c0.1-9.2,0.5-18.3,3.3-27.2c3.8-12.2,13.2-16.8,24.9-18.3c4.5-0.6,9-0.9,13.5-0.8c3.1,0,3.8-1.1,3.6-3.9c-0.2-3.4,0-6.9,0-10.6c2.4-0.1,3.6,1.6,5,2.7c6.3,4.4,12.4,9,18.7,13.5C114.4,47.9,116.2,48.7,114,50.3L114,50.3z M195.3,190c-3.5,12.6-11.8,19.1-26.5,20.6c-4.6,0.5-9.3,0.8-13.9,0.8c-2.4,0-3.1,0.8-3,3.1c0.2,3.4,0,6.9,0,11.4c-8.1-6-15.3-11.4-22.6-16.7c-1.3-0.9-1.5-1.7-0.1-2.8c7.3-5.9,14.6-11.9,22.7-18.5c0,4.6,0.1,8.1,0,11.7c-0.1,2.1,0.5,2.9,2.8,2.8c4.7-0.1,9.3-0.2,13.9-1c8.2-1.5,13.3-6.5,15.7-14.4c2.1-6.7,2.8-13.6,2.7-20.5c0-3.2,0.8-4.4,4-3.9c1.3,0.2,2.7,0.1,4.1,0c2-0.2,3,0.3,2.9,2.7C197.9,173.7,197.5,182,195.3,190L195.3,190z M240.2,158.4c-31.5-0.2-62.9-0.2-94.4,0c-4.7,0-5.8-1.6-5.8-6c0.1-38.2,0.1-76.5,0.1-114.7c0-6.9,0.9-7.7,7.8-7.7c30.4,0,60.8,0,91.2,0c6,0,6.7,0.7,6.7,6.8c0,19.4,0,38.8,0,58.3c0,19.1-0.1,38.2,0.1,57.4C246,156.8,245,158.4,240.2,158.4L240.2,158.4z"/></g></g>
</svg>